#!OML:ASF E:\motion texture\Top Level 1\Subject 1\Session 1\male.ASF
:FULLY-SPECIFIED
:DEGREES
261
root -4.64244 17.6411 4.38613 -23.9778 -104.645 30.0931
lowerback -0.684841 1.83306 7.91075
upperback -0.857008 2.36399 1.8149
thorax -0.257124 1.12389 -2.53721
lowerneck -10.5311 -7.74498 -10.6913
upperneck 6.40658 -10.2304 13.1587
head 4.89507 -4.66689 5.00255
rclavicle 1.8692e-014 -3.67752e-014
rhumerus -6.58422 -8.59292 -79.3301
rradius 53.3834
rwrist -0.0404532
rhand -21.1668 -28.6368
rfingers 7.12502
rthumb 5.21328 -58.5527
lclavicle 1.8692e-014 -3.67752e-014
lhumerus -45.2561 41.0749 62.0996
lradius 19.1441
lwrist -34.2732
lhand -21.6287 22.7935
lfingers 7.12502
lthumb 4.76726 52.7199
rfemur 0.128366 3.70932 28.0615
rtibia 40.6722
rfoot -3.61432 -6.63556
rtoes -9.57495
lfemur -29.5422 0.496967 -10.4319
ltibia 28.3272
lfoot -2.42705 3.184
ltoes -0.824663
262
root -4.80942 17.6497 4.39242 -22.6424 -104.672 28.5859
lowerback -0.636625 1.72455 7.52933
upperback -0.865069 2.2296 1.7855
thorax -0.319 1.05794 -2.36
lowerneck -10.4798 -7.66584 -10.6296
upperneck 6.55336 -10.1426 13.0839
head 4.91283 -4.62565 4.9791
rclavicle -1.04673e-015 -2.73826e-014
rhumerus -6.88037 -8.21513 -79.4347
rradius 51.6887
rwrist 0.820647
rhand -21.1758 -28.4595
rfingers 7.12502
rthumb 5.20458 -58.3756
lclavicle -1.04673e-015 -2.73826e-014
lhumerus -43.9738 40.5496 64.1098
lradius 19.4046
lwrist -33.0105
lhand -21.7123 23.0052
lfingers 7.12502
lthumb 4.68661 52.9334
rfemur -1.12282 3.35225 27.2976
rtibia 43.1439
rfoot -0.453387 -6.72081
rtoes -6.90267
lfemur -28.7846 0.716065 -11.052
ltibia 28.431
lfoot -2.86803 3.00184
ltoes -0.133344
263
root -4.97368 17.6587 4.39805 -21.035 -104.615 26.7965
lowerback -0.57449 1.58452 7.0316
upperback -0.886362 2.05615 1.73355
thorax -0.407384 0.972714 -2.14196
lowerneck -10.4046 -7.56723 -10.5522
upperneck 6.71758 -10.0327 12.9946
head 4.92774 -4.57456 4.95145
rclavicle -3.96172e-014 -1.59028e-014
rhumerus -7.15735 -7.78967 -79.5572
rradius 49.9124
rwrist 1.70788
rhand -21.0563 -28.2442
rfingers 7.12502
rthumb 5.32002 -58.1574
lclavicle -3.96172e-014 -1.59028e-014
lhumerus -42.6138 39.7728 66.2508
lradius 19.7518
lwrist -31.6034
lhand -21.75 23.1954
lfingers 7.12502
lthumb 4.65022 53.1244
rfemur -2.38889 2.97312 26.4477
rtibia 45.5494
rfoot 2.66091 -6.84959
rtoes -4.21114
lfemur -27.9818 0.826308 -11.7865
ltibia 28.4109
lfoot -3.32139 2.8679
ltoes 0.37291
264
root -5.135 17.6682 4.40268 -19.1639 -104.471 24.7254
lowerback -0.49439 1.41305 6.42463
upperback -0.910943 1.84266 1.65665
thorax -0.512326 0.868483 -1.88867
lowerneck -10.3117 -7.45554 -10.4729
upperneck 6.88343 -9.90844 12.9159
head 4.93915 -4.51665 4.92882
rclavicle 1.50362e-014 -1.74931e-014
rhumerus -7.41611 -7.33677 -79.6976
rradius 48.0785
rwrist 2.61109
rhand -20.8198 -27.9888
rfingers 7.12502
rthumb 5.54831 -57.8961
lclavicle 1.50362e-014 -1.74931e-014
lhumerus -41.1869 38.7829 68.4621
lradius 20.1559
lwrist -30.1513
lhand -21.7727 23.3295
lfingers 7.12502
lthumb 4.6283 53.259
rfemur -3.65071 2.56523 25.5228
rtibia 47.8998
rfoot 5.39994 -7.05425
rtoes -2.06471
lfemur -27.1466 0.823065 -12.634
ltibia 28.3007
lfoot -3.77372 2.78196
ltoes 0.693019
265
root -5.29349 17.6781 4.4063 -17.0779 -104.245 22.416
lowerback -0.395776 1.20952 5.73243
upperback -0.929926 1.58662 1.55839
thorax -0.622663 0.744377 -1.60887
lowerneck -10.2042 -7.33534 -10.3941
upperneck 7.04173 -9.77472 12.8506
head 4.94565 -4.45427 4.91186
rclavicle -3.31101e-015 -2.87244e-014
rhumerus -7.64894 -6.87323 -79.8554
rradius 46.184
rwrist 3.52146
rhand -20.5276 -27.6959
rfingers 7.12502
rthumb 5.83046 -57.5957
lclavicle -3.31101e-015 -2.87244e-014
lhumerus -39.6944 37.549 70.7379
lradius 20.6194
lwrist -28.6546
lhand -21.7892 23.4677
lfingers 7.12502
lthumb 4.61232 53.3975
rfemur -4.89681 2.11452 24.5435
rtibia 50.2054
rfoot 7.53108 -7.40552
rtoes -0.711176
lfemur -26.2817 0.703781 -13.5752
ltibia 28.124
lfoot -4.22672 2.72157
ltoes 0.890358
266
root -5.44917 17.6887 4.40854 -14.8617 -103.96 19.9655
lowerback -0.286188 0.984069 4.9951
upperback -0.937953 1.2995 1.44873
thorax -0.725318 0.606059 -1.31373
lowerneck -10.1027 -7.21791 -10.3238
upperneck 7.18604 -9.64414 12.8058
head 4.95101 -4.39274 4.90216
rclavicle 1.64898e-014 2.0773e-014
rhumerus -7.8617 -6.42005 -80.0211
rradius 44.253
rwrist 4.42438
rhand -20.1994 -27.349
rfingers 7.12502
rthumb 6.14726 -57.2399
lclavicle 1.64898e-014 2.0773e-014
lhumerus -38.1479 36.1234 73.0188
lradius 21.1092
lwrist -27.2142
lhand -21.7982 23.6119
lfingers 7.12502
lthumb 4.60363 53.5419
rfemur -6.14523 1.62 23.5547
rtibia 52.473
rfoot 8.98514 -8.00321
rtoes -0.046857
lfemur -25.405 0.493719 -14.5615
ltibia 27.9033
lfoot -4.6722 2.66887
ltoes 1.0064
267
root -5.60258 17.7003 4.40936 -12.6594 -103.639 17.5265
lowerback -0.17101 0.74487 4.2639
upperback -0.933466 0.991058 1.34059
thorax -0.813212 0.457848 -1.01822
lowerneck -10.0213 -7.11089 -10.2559
upperneck 7.31992 -9.52575 12.7705
head 4.95876 -4.33621 4.89395
rclavicle -1.32968e-014 1.44119e-014
rhumerus -8.0715 -5.99816 -80.1875
rradius 42.3055
rwrist 5.32266
rhand -19.7854 -26.9288
rfingers 7.12502
rthumb 6.54699 -56.8076
lclavicle -1.32968e-014 1.44119e-014
lhumerus -36.5492 34.4839 75.2941
lradius 21.6202
lwrist -25.8262
lhand -21.7226 23.9154
lfingers 7.12502
lthumb 4.67661 53.8437
rfemur -7.40077 1.07382 22.6092
rtibia 54.6852
rfoot 9.77311 -8.86569
rtoes 0.0763127
lfemur -24.5192 0.219941 -15.5359
ltibia 27.648
lfoot -5.1067 2.62461
ltoes 1.08574
268
root -5.75403 17.713 4.40862 -10.6783 -103.31 15.3217
lowerback -0.0652533 0.502525 3.60405
upperback -0.913955 0.674615 1.24965
thorax -0.873785 0.305708 -0.742704
lowerneck -9.95932 -7.01849 -10.1982
upperneck 7.43781 -9.42459 12.7523
head 4.96849 -4.28709 4.89048
rclavicle 5.26779e-015 -2.78299e-015
rhumerus -8.28643 -5.62593 -80.3493
rradius 40.3598
rwrist 6.21746
rhand -19.3034 -26.4638
rfingers 7.12502
rthumb 7.01226 -56.3277
lclavicle 5.26779e-015 -2.78299e-015
lhumerus -34.9202 32.6711 77.509
lradius 22.1184
lwrist -24.6259
lhand -21.5856 24.3123
lfingers 7.12502
lthumb 4.80892 54.2377
rfemur -8.67757 0.478391 21.7771
rtibia 56.8203
rfoot 10.0013 -9.93402
rtoes 0.147122
lfemur -23.6288 -0.0805972 -16.4222
ltibia 27.3614
lfoot -5.52711 2.58424
ltoes 1.13696
269
root -5.90412 17.7275 4.40657 -9.10938 -102.982 13.5479
lowerback 0.0238871 0.265323 3.06208
upperback -0.875914 0.361757 1.18902
thorax -0.899526 0.154816 -0.500339
lowerneck -9.9225 -6.94631 -10.1501
upperneck 7.53596 -9.34665 12.7448
head 4.98028 -4.24839 4.8889
rclavicle -1.00635e-015 -3.08116e-015
rhumerus -8.52514 -5.32354 -80.4951
rradius 38.4468
rwrist 7.13821
rhand -18.6779 -25.9861
rfingers 7.12502
rthumb 7.61604 -55.829
lclavicle -1.00635e-015 -3.08116e-015
lhumerus -33.2723 30.672 79.6549
lradius 22.6176
lwrist -23.62
lhand -21.4687 24.6133
lfingers 7.12502
lthumb 4.92179 54.5361
rfemur -9.96203 -0.161758 21.1078
rtibia 58.8253
rfoot 9.78145 -11.1076
rtoes 0.419914
lfemur -22.7273 -0.384859 -17.1672
ltibia 27.036
lfoot -5.93108 2.53942
ltoes 1.18592
270
root -6.0532 17.7443 4.40345 -8.10686 -102.672 12.3649
lowerback 0.0906493 0.0420306 2.67251
upperback -0.817841 0.0650872 1.1681
thorax -0.886793 0.0109587 -0.301656
lowerneck -9.90978 -6.89717 -10.1106
upperneck 7.61012 -9.29491 12.7432
head 4.99268 -4.22183 4.88737
rclavicle -1.70334e-014 5.56597e-015
rhumerus -8.79763 -5.11067 -80.6191
rradius 36.5925
rwrist 8.12865
rhand -17.8805 -25.5527
rfingers 7.12502
rthumb 8.38564 -55.3663
lclavicle -1.70334e-014 5.56597e-015
lhumerus -31.6207 28.5519 81.6834
lradius 23.0948
lwrist -22.8916
lhand -21.3601 24.7447
lfingers 7.12502
lthumb 5.02661 54.665
rfemur -11.2502 -0.824532 20.6382
rtibia 60.6731
rfoot 9.25976 -12.2992
rtoes 1.07452
lfemur -21.8082 -0.670356 -17.7303
ltibia 26.6626
lfoot -6.31309 2.49367
ltoes 1.21399
